<svg width="83" height="50" viewBox="0 0 83 50" fill="none" xmlns="http://www.w3.org/2000/svg">
<path d="M28.4962 0.193645C28.3228 0.193645 28.1494 0.18868 27.976 0.173784C26.7622 0.0893752 21.169 -0.109234 18.9694 3.00397C16.314 6.76266 12.3011 12.1897 12.3011 12.1897C12.3011 12.1897 11.4242 12.7855 11.0378 12.9394C10.6514 13.0933 1.54569 16.1122 0.475594 21.7378C-0.599453 27.3635 0.475594 26.8918 0.475594 26.8918C0.475594 26.8918 6.46514 20.5362 16.7648 26.8918C27.0595 33.2473 37.8149 46.7378 40.5 48.4062C43.0762 50.005 46.6679 50.6207 51.6716 43.6842C56.6753 36.7478 60.8615 30.6802 60.8615 30.6802L41.372 30.7944C41.372 30.7944 41.6643 27.428 44.7755 27.4181L61.8177 27.289C61.8177 27.289 63.4327 27.6862 65.8652 23.5551C68.3026 19.429 71.181 15.7646 71.181 15.7646H49.6156C49.6156 15.7646 50.012 11.9712 53.5988 12.0358C56.7744 12.0953 65.6076 12.0556 68.0302 12.0457C68.2878 12.0457 70.4032 12.0705 70.6608 12.0705C71.4535 12.0705 74.0692 11.9613 75.4168 10.1291C77.2845 7.59186 82.7291 -0.00992966 82.7291 -0.00992966L28.4962 0.193645ZM27.6886 10.3376C26.2272 11.0924 19.3855 10.0993 19.3855 10.0993L29.1006 5.26812C29.1006 5.26812 29.1501 9.58292 27.6886 10.3376Z" fill="#6D28D9"/>
</svg>
