<svg width="209" height="50" viewBox="0 0 209 50" fill="none" xmlns="http://www.w3.org/2000/svg">
<path d="M28.4962 0.193645C28.3228 0.193645 28.1494 0.18868 27.976 0.173784C26.7622 0.0893752 21.169 -0.109234 18.9694 3.00397C16.314 6.76266 12.3011 12.1897 12.3011 12.1897C12.3011 12.1897 11.4242 12.7855 11.0378 12.9394C10.6514 13.0933 1.54569 16.1122 0.475594 21.7378C-0.599453 27.3635 0.475594 26.8918 0.475594 26.8918C0.475594 26.8918 6.46514 20.5362 16.7648 26.8918C27.0595 33.2473 37.8149 46.7378 40.5 48.4062C43.0762 50.005 46.6679 50.6207 51.6716 43.6842C56.6753 36.7478 60.8615 30.6802 60.8615 30.6802L41.372 30.7944C41.372 30.7944 41.6643 27.428 44.7755 27.4181L61.8177 27.289C61.8177 27.289 63.4327 27.6862 65.8652 23.5551C68.3026 19.429 71.181 15.7646 71.181 15.7646H49.6156C49.6156 15.7646 50.012 11.9712 53.5988 12.0358C56.7744 12.0953 65.6076 12.0556 68.0302 12.0457C68.2878 12.0457 70.4032 12.0705 70.6608 12.0705C71.4535 12.0705 74.0692 11.9613 75.4168 10.1291C77.2845 7.59186 82.7291 -0.00992966 82.7291 -0.00992966L28.4962 0.193645ZM27.6886 10.3376C26.2272 11.0924 19.3855 10.0993 19.3855 10.0993L29.1006 5.26812C29.1006 5.26812 29.1501 9.58292 27.6886 10.3376Z" fill="#6D28D9"/>
<path d="M98.1959 41.4796L106.241 17.001C106.588 15.9434 107.574 15.2284 108.689 15.2284H116.006L105.013 44.995C104.027 47.6713 101.48 49.4439 98.6368 49.4439H97.636C94.7874 49.4439 92.241 47.6614 91.2551 44.9851L80.3214 15.2284H87.703C88.8127 15.2284 89.8036 15.9434 90.1503 17.001L98.1959 41.4796Z" fill="#6D28D9"/>
<path d="M152.364 34.9305H127.405C127.609 37.4032 128.476 39.3347 129.991 40.7349C131.512 42.1351 133.38 42.8352 135.6 42.8352C138.205 42.8352 140.197 41.9265 141.579 40.1043C142.273 39.1907 143.392 38.6991 144.542 38.6991H151.745C150.759 41.996 148.867 44.7021 146.078 46.8223C143.283 48.9424 139.855 50.005 135.788 50.005C132.498 50.005 129.551 49.2751 126.945 47.8103C124.334 46.3506 122.303 44.28 120.846 41.6038C119.385 38.9275 118.656 35.8391 118.656 32.3386C118.656 28.8381 119.375 25.6902 120.811 23.0139C122.248 20.3376 124.265 18.2771 126.851 16.8371C129.437 15.3972 132.419 14.6773 135.788 14.6773C139.157 14.6773 141.941 15.3774 144.507 16.7776C147.073 18.1778 149.07 20.1639 150.487 22.7359C151.904 25.3078 152.612 28.2622 152.612 31.5988C152.612 32.8352 152.528 33.9474 152.364 34.9355V34.9305ZM143.675 29.1261C143.635 26.9017 142.833 25.1241 141.272 23.7835C139.712 22.4479 137.799 21.7776 135.54 21.7776C133.405 21.7776 131.607 22.428 130.15 23.7239C128.694 25.0199 127.797 26.8222 127.47 29.1261H143.68H143.675Z" fill="#6D28D9"/>
<path d="M167.524 0V49.4439H158.894V0H167.524Z" fill="#6D28D9"/>
<path d="M182.317 47.8103C179.686 46.3506 177.621 44.28 176.124 41.6038C174.623 38.9275 173.875 35.8391 173.875 32.3386C173.875 28.8381 174.643 25.7498 176.189 23.0735C177.73 20.3972 179.835 18.3267 182.505 16.8669C185.176 15.4072 188.153 14.6723 191.443 14.6723C194.732 14.6723 197.71 15.4022 200.38 16.8669C203.05 18.3267 205.156 20.3972 206.696 23.0735C208.237 25.7498 209.01 28.8381 209.01 32.3386C209.01 35.8391 208.217 38.9275 206.637 41.6038C205.056 44.28 202.916 46.3506 200.226 47.8103C197.536 49.2701 194.524 50.005 191.2 50.005C187.876 50.005 184.953 49.2751 182.327 47.8103H182.317ZM195.599 41.3257C196.976 40.566 198.076 39.424 198.899 37.8997C199.721 36.3754 200.132 34.5233 200.132 32.3386C200.132 29.0864 199.28 26.5839 197.576 24.8361C195.872 23.0884 193.786 22.2095 191.319 22.2095C188.852 22.2095 186.791 23.0834 185.126 24.8361C183.461 26.5889 182.629 29.0864 182.629 32.3386C182.629 35.5909 183.442 38.0933 185.062 39.8411C186.687 41.5938 188.728 42.4677 191.195 42.4677C192.755 42.4677 194.227 42.0854 195.599 41.3257Z" fill="#6D28D9"/>
</svg>
