<svg width="27" height="16" viewBox="0 0 27 16" fill="none" xmlns="http://www.w3.org/2000/svg">
<path d="M9.30067 0.0658626C9.24408 0.0658626 9.18749 0.0642562 9.1309 0.059437C8.73478 0.0321281 6.90939 -0.0321281 6.19152 0.975088C5.32491 2.19114 4.01528 3.94694 4.01528 3.94694C4.01528 3.94694 3.72911 4.13971 3.60299 4.18951C3.47688 4.23931 0.505167 5.216 0.155933 7.03606C-0.194917 8.85612 0.155933 8.70351 0.155933 8.70351C0.155933 8.70351 2.11067 6.64731 5.47204 8.70351C8.83179 10.7597 12.3419 15.1243 13.2182 15.6641C14.059 16.1813 15.2312 16.3805 16.8642 14.1364C18.4971 11.8922 19.8634 9.9292 19.8634 9.9292L13.5028 9.96614C13.5028 9.96614 13.5982 8.877 14.6135 8.87379L20.1754 8.83202C20.1754 8.83202 20.7025 8.96053 21.4963 7.624C22.2918 6.28908 23.2312 5.10355 23.2312 5.10355H16.1932C16.1932 5.10355 16.3225 3.87626 17.4931 3.89714C18.5295 3.91642 21.4123 3.90357 22.2029 3.90035C22.287 3.90035 22.9774 3.90839 23.0614 3.90839C23.3201 3.90839 24.1738 3.87304 24.6136 3.28028C25.2231 2.45941 27 0 27 0L9.30067 0.0658626ZM9.03713 3.34775C8.56016 3.59192 6.32734 3.27064 6.32734 3.27064L9.49792 1.70761C9.49792 1.70761 9.51409 3.10358 9.03713 3.34775Z" fill="#6D28D9"/>
</svg>
